<mxfile host="app.diagrams.net" modified="2023-03-30T10:15:08.194Z" agent="Mozilla/5.0 (Windows NT 10.0; Win64; x64) AppleWebKit/537.36 (KHTML, like Gecko) Chrome/111.0.0.0 Safari/537.36" etag="s-fa_yHAA544Sr6IMnLY" version="21.1.2" type="device">
  <diagram name="Page-1" id="zGvRbjbTp-PXyx9V2pE0">
    <mxGraphModel dx="2389" dy="875" grid="1" gridSize="10" guides="1" tooltips="1" connect="1" arrows="1" fold="1" page="1" pageScale="1" pageWidth="827" pageHeight="1169" math="0" shadow="0">
      <root>
        <mxCell id="0" />
        <mxCell id="1" parent="0" />
        <mxCell id="rYiIzjvt2YPSOlpR512g-1" value="" style="rounded=0;whiteSpace=wrap;html=1;align=left;" vertex="1" parent="1">
          <mxGeometry x="120" y="90" width="325" height="510" as="geometry" />
        </mxCell>
        <mxCell id="rYiIzjvt2YPSOlpR512g-2" value="Node.js Express Server" style="text;html=1;strokeColor=none;fillColor=none;align=center;verticalAlign=middle;whiteSpace=wrap;rounded=0;" vertex="1" parent="1">
          <mxGeometry x="212.5" y="110" width="140" height="30" as="geometry" />
        </mxCell>
        <mxCell id="rYiIzjvt2YPSOlpR512g-36" style="edgeStyle=orthogonalEdgeStyle;rounded=0;orthogonalLoop=1;jettySize=auto;html=1;exitX=0;exitY=0.75;exitDx=0;exitDy=0;entryX=1;entryY=0.5;entryDx=0;entryDy=0;strokeColor=default;startArrow=classic;startFill=1;" edge="1" parent="1" source="rYiIzjvt2YPSOlpR512g-3" target="rYiIzjvt2YPSOlpR512g-33">
          <mxGeometry relative="1" as="geometry">
            <Array as="points">
              <mxPoint x="670" y="398" />
              <mxPoint x="670" y="430" />
            </Array>
          </mxGeometry>
        </mxCell>
        <mxCell id="rYiIzjvt2YPSOlpR512g-37" style="edgeStyle=orthogonalEdgeStyle;rounded=0;orthogonalLoop=1;jettySize=auto;html=1;exitX=0;exitY=0.25;exitDx=0;exitDy=0;entryX=1;entryY=0.5;entryDx=0;entryDy=0;startArrow=classic;startFill=1;" edge="1" parent="1" source="rYiIzjvt2YPSOlpR512g-3" target="rYiIzjvt2YPSOlpR512g-29">
          <mxGeometry relative="1" as="geometry">
            <Array as="points">
              <mxPoint x="490" y="313" />
              <mxPoint x="490" y="210" />
            </Array>
          </mxGeometry>
        </mxCell>
        <mxCell id="rYiIzjvt2YPSOlpR512g-3" value="" style="rounded=0;whiteSpace=wrap;html=1;align=left;" vertex="1" parent="1">
          <mxGeometry x="690" y="270" width="290" height="170" as="geometry" />
        </mxCell>
        <mxCell id="rYiIzjvt2YPSOlpR512g-4" value="Angular Web App" style="text;html=1;strokeColor=none;fillColor=none;align=center;verticalAlign=middle;whiteSpace=wrap;rounded=0;" vertex="1" parent="1">
          <mxGeometry x="765" y="270" width="140" height="30" as="geometry" />
        </mxCell>
        <mxCell id="rYiIzjvt2YPSOlpR512g-5" value="" style="rounded=0;whiteSpace=wrap;html=1;align=left;" vertex="1" parent="1">
          <mxGeometry x="-190" y="310" width="180" height="100" as="geometry" />
        </mxCell>
        <mxCell id="rYiIzjvt2YPSOlpR512g-6" value="Mongo Db Server" style="text;html=1;strokeColor=none;fillColor=none;align=center;verticalAlign=middle;whiteSpace=wrap;rounded=0;" vertex="1" parent="1">
          <mxGeometry x="-170" y="310" width="140" height="30" as="geometry" />
        </mxCell>
        <mxCell id="rYiIzjvt2YPSOlpR512g-9" value="" style="rounded=0;whiteSpace=wrap;html=1;" vertex="1" parent="1">
          <mxGeometry x="285" y="160" width="120" height="180" as="geometry" />
        </mxCell>
        <mxCell id="rYiIzjvt2YPSOlpR512g-18" value="API" style="text;html=1;strokeColor=none;fillColor=none;align=center;verticalAlign=middle;whiteSpace=wrap;rounded=0;" vertex="1" parent="1">
          <mxGeometry x="315" y="160" width="60" height="30" as="geometry" />
        </mxCell>
        <mxCell id="rYiIzjvt2YPSOlpR512g-19" value="&lt;br&gt;&lt;div style=&quot;&quot;&gt;&lt;span style=&quot;background-color: initial;&quot;&gt;Registration&lt;br&gt;&lt;br&gt;Authentication&lt;br&gt;&lt;br&gt;&lt;/span&gt;&lt;/div&gt;&lt;div style=&quot;&quot;&gt;&lt;span style=&quot;background-color: initial;&quot;&gt;Boards Logic&lt;/span&gt;&lt;/div&gt;" style="text;html=1;strokeColor=none;fillColor=none;align=left;verticalAlign=middle;whiteSpace=wrap;rounded=0;" vertex="1" parent="1">
          <mxGeometry x="299" y="190" width="111" height="70" as="geometry" />
        </mxCell>
        <mxCell id="rYiIzjvt2YPSOlpR512g-21" value="" style="endArrow=none;html=1;rounded=0;exitX=-0.023;exitY=0.159;exitDx=0;exitDy=0;exitPerimeter=0;" edge="1" parent="1" source="rYiIzjvt2YPSOlpR512g-9">
          <mxGeometry width="50" height="50" relative="1" as="geometry">
            <mxPoint x="355" y="240" as="sourcePoint" />
            <mxPoint x="405" y="190" as="targetPoint" />
          </mxGeometry>
        </mxCell>
        <mxCell id="rYiIzjvt2YPSOlpR512g-23" value="" style="rounded=0;whiteSpace=wrap;html=1;" vertex="1" parent="1">
          <mxGeometry x="280" y="390" width="120" height="180" as="geometry" />
        </mxCell>
        <mxCell id="rYiIzjvt2YPSOlpR512g-24" value="Socket IO" style="text;html=1;strokeColor=none;fillColor=none;align=center;verticalAlign=middle;whiteSpace=wrap;rounded=0;" vertex="1" parent="1">
          <mxGeometry x="310" y="390" width="60" height="30" as="geometry" />
        </mxCell>
        <mxCell id="rYiIzjvt2YPSOlpR512g-25" value="&lt;br&gt;&lt;div style=&quot;&quot;&gt;&lt;span style=&quot;background-color: initial;&quot;&gt;Authentication&lt;br&gt;&lt;br&gt;&lt;/span&gt;&lt;/div&gt;&lt;div style=&quot;&quot;&gt;&lt;span style=&quot;background-color: initial;&quot;&gt;Board Logic&lt;br&gt;&lt;br&gt;Tasks Actions&lt;/span&gt;&lt;/div&gt;&lt;div style=&quot;&quot;&gt;&lt;span style=&quot;background-color: initial;&quot;&gt;&lt;br&gt;Columns Actions&lt;/span&gt;&lt;/div&gt;" style="text;html=1;strokeColor=none;fillColor=none;align=left;verticalAlign=middle;whiteSpace=wrap;rounded=0;" vertex="1" parent="1">
          <mxGeometry x="285" y="445" width="111" height="70" as="geometry" />
        </mxCell>
        <mxCell id="rYiIzjvt2YPSOlpR512g-26" value="" style="endArrow=none;html=1;rounded=0;exitX=-0.023;exitY=0.159;exitDx=0;exitDy=0;exitPerimeter=0;" edge="1" parent="1" source="rYiIzjvt2YPSOlpR512g-23">
          <mxGeometry width="50" height="50" relative="1" as="geometry">
            <mxPoint x="350" y="470" as="sourcePoint" />
            <mxPoint x="400" y="420" as="targetPoint" />
          </mxGeometry>
        </mxCell>
        <mxCell id="rYiIzjvt2YPSOlpR512g-29" value="" style="ellipse;whiteSpace=wrap;html=1;aspect=fixed;" vertex="1" parent="1">
          <mxGeometry x="430" y="190" width="40" height="40" as="geometry" />
        </mxCell>
        <mxCell id="rYiIzjvt2YPSOlpR512g-32" value="HTTP REQUESTS" style="text;html=1;align=center;verticalAlign=middle;resizable=0;points=[];autosize=1;strokeColor=none;fillColor=none;" vertex="1" parent="1">
          <mxGeometry x="510" y="270" width="120" height="30" as="geometry" />
        </mxCell>
        <mxCell id="rYiIzjvt2YPSOlpR512g-33" value="" style="ellipse;whiteSpace=wrap;html=1;aspect=fixed;" vertex="1" parent="1">
          <mxGeometry x="430" y="410" width="40" height="40" as="geometry" />
        </mxCell>
        <mxCell id="rYiIzjvt2YPSOlpR512g-38" value="TCP Connection" style="text;html=1;align=center;verticalAlign=middle;resizable=0;points=[];autosize=1;strokeColor=none;fillColor=none;" vertex="1" parent="1">
          <mxGeometry x="515" y="400" width="110" height="30" as="geometry" />
        </mxCell>
        <mxCell id="rYiIzjvt2YPSOlpR512g-39" value="Event driven communication" style="text;html=1;align=center;verticalAlign=middle;resizable=0;points=[];autosize=1;strokeColor=none;fillColor=none;" vertex="1" parent="1">
          <mxGeometry x="500" y="440" width="170" height="30" as="geometry" />
        </mxCell>
        <mxCell id="rYiIzjvt2YPSOlpR512g-42" style="edgeStyle=orthogonalEdgeStyle;rounded=0;orthogonalLoop=1;jettySize=auto;html=1;exitX=0;exitY=0;exitDx=0;exitDy=15;exitPerimeter=0;entryX=1;entryY=0.25;entryDx=0;entryDy=0;" edge="1" parent="1" source="rYiIzjvt2YPSOlpR512g-41" target="rYiIzjvt2YPSOlpR512g-5">
          <mxGeometry relative="1" as="geometry" />
        </mxCell>
        <mxCell id="rYiIzjvt2YPSOlpR512g-43" style="edgeStyle=orthogonalEdgeStyle;rounded=0;orthogonalLoop=1;jettySize=auto;html=1;exitX=0;exitY=0;exitDx=0;exitDy=35;exitPerimeter=0;entryX=1;entryY=0.75;entryDx=0;entryDy=0;startArrow=classic;startFill=1;endArrow=none;endFill=0;" edge="1" parent="1" source="rYiIzjvt2YPSOlpR512g-41" target="rYiIzjvt2YPSOlpR512g-5">
          <mxGeometry relative="1" as="geometry" />
        </mxCell>
        <mxCell id="rYiIzjvt2YPSOlpR512g-45" style="edgeStyle=orthogonalEdgeStyle;rounded=0;orthogonalLoop=1;jettySize=auto;html=1;exitX=1;exitY=0.25;exitDx=0;exitDy=0;startArrow=block;startFill=1;" edge="1" parent="1" source="rYiIzjvt2YPSOlpR512g-41" target="rYiIzjvt2YPSOlpR512g-9">
          <mxGeometry relative="1" as="geometry" />
        </mxCell>
        <mxCell id="rYiIzjvt2YPSOlpR512g-46" style="edgeStyle=orthogonalEdgeStyle;rounded=0;orthogonalLoop=1;jettySize=auto;html=1;exitX=1;exitY=0.75;exitDx=0;exitDy=0;entryX=0;entryY=0.5;entryDx=0;entryDy=0;startArrow=classic;startFill=1;" edge="1" parent="1" source="rYiIzjvt2YPSOlpR512g-41" target="rYiIzjvt2YPSOlpR512g-23">
          <mxGeometry relative="1" as="geometry" />
        </mxCell>
        <mxCell id="rYiIzjvt2YPSOlpR512g-41" value="Mongoose&lt;br&gt;ORM" style="shape=module;align=left;spacingLeft=20;align=center;verticalAlign=top;whiteSpace=wrap;html=1;" vertex="1" parent="1">
          <mxGeometry x="100" y="330" width="100" height="50" as="geometry" />
        </mxCell>
      </root>
    </mxGraphModel>
  </diagram>
</mxfile>
